<svg version="1.2" xmlns="http://www.w3.org/2000/svg" viewBox="0 0 512 512" width="512" height="512">
	<title>logoNeyap</title>
	<style>
		.s0 { fill: #267d8f } 
	</style>
	<g id="layer1">
		<path id="path57" class="s0" d="m94.4 498.3c-8-1.7-14-3.3-17.1-4.8-2.7-1.3-6.6-3.1-8.7-4-2-0.9-4.3-2.1-5.1-2.8-0.7-0.6-2.7-2-4.5-2.9-10.7-5.7-30.3-26.7-34.9-37.4-0.5-1.3-1.8-3.5-2.8-5-1-1.4-2.3-4.5-3-6.8-0.7-2.3-2-6.1-2.8-8.4-4.3-11.7-4.4-14.8-4.5-78.2 0-64.4-0.4-59.6 5.5-63.2 6.1-3.6 24.1-11.9 25.8-11.9 0.5 0 4.5-1.2 8.7-2.6 9-3.1 12.3-3.7 30.2-5.7 25.8-2.9 27.5-2.9 64.1 1.1 11.1 1.2 19.5 2.6 23.3 3.7 3.3 1 9.6 2.4 14 3.1 4.4 0.8 10.2 2.2 13 3.2 2.7 1 8 2.6 11.7 3.4 3.8 0.8 8.9 2.3 11.5 3.3 2.5 1 7.8 2.8 11.8 3.9 3.9 1.1 8.4 2.6 9.9 3.4 1.5 0.7 5.3 2.1 8.4 3 3.2 1 6.8 2.3 8 3.1 1.3 0.8 5.2 2.3 8.8 3.5 3.6 1.1 7.4 2.6 8.4 3.4 1 0.7 4.2 2 7 2.9 2.8 0.8 6.9 2.6 9.1 3.8 2.3 1.2 5 2.5 6 2.8 2.6 0.7 16.1 6.7 22.3 9.9 2.8 1.5 7 3.4 9.3 4.2 2.3 0.9 4.9 2.2 5.9 3 1 0.7 3.8 2.1 6.4 3 2.5 0.9 5.4 2.3 6.5 3.1 1.1 0.8 4.2 2.4 6.9 3.5 2.7 1.1 5.7 2.7 6.8 3.5 1.1 0.7 3.9 2.1 6.1 3 2.3 0.9 5.5 2.4 7.2 3.4 1.7 0.9 5.3 2.6 8 3.7 2.6 1.1 5.4 2.5 6.1 3.2 0.7 0.6 3.8 1.9 6.8 3 3 1 6.6 2.5 8 3.3 3.3 2.1 6.4 2.8 21.8 5.1 11.2 1.7 14.9 2 22.9 1.6 10.6-0.5 23.9-3.1 28.6-5.6 1.7-0.9 4.5-2.4 6.3-3.2 1.7-0.9 4.8-3 6.8-4.6 2-1.7 4.8-3.9 6.1-5l2.4-2 1.4 2.1c1.2 1.9 1.3 4.3 1.1 30-0.2 28.4-1 37.8-3.5 42.7-0.6 1.2-1.8 4.5-2.6 7.4-1.4 5.1-8.2 19-10.7 22-0.7 0.8-2.3 3.1-3.5 4.9-5.1 8-20.1 22.3-27.8 26.4-1.8 1-3.8 2.3-4.5 2.9-0.7 0.7-3 1.9-5.1 2.8-2.1 0.9-5.9 2.7-8.5 3.9-3 1.4-9.2 3.2-17.7 4.9l-13 2.6-148.1-0.1-148.2-0.1zm168.3-261.2c-6.1-0.4-16-1.3-22.1-2.2-6.1-0.8-17.1-2.1-24.4-2.7-7.4-0.7-18.3-2.2-24.4-3.4-6.1-1.2-15.2-2.8-20.2-3.4-5.1-0.7-11.6-1.9-14.6-2.7-3-0.8-10.7-2.4-17.2-3.4-6.4-1.1-15.1-2.9-19.3-3.9-8-1.9-18.7-3.2-42.7-5.3-17.9-1.6-34.3-1.2-51.3 1.2-12 1.6-12.5 1.6-13.9 0.3-1.5-1.3-1.5-2.4-1.5-53.3 0-55.1 0.3-61.4 3.7-70 0.8-2.2 2.2-6.3 3-9 0.9-2.7 2.8-7 4.3-9.5 1.5-2.5 2.7-4.9 2.7-5.5 0-0.5 0.9-2.1 2.1-3.4 1.2-1.4 3.4-4.4 4.9-6.7 5.4-8.3 21.2-22.8 29.4-27 1.3-0.7 3.7-2.1 5.1-3.1 1.5-1 4.6-2.4 6.7-3.1 2.2-0.7 5.1-2 6.3-2.7 3.1-1.9 9.1-3.4 21.4-5.5l9.9-1.7h144.5c135.5 0 145 0.1 153.2 1.4 11.2 1.7 19.7 3.8 23.6 5.8 1.7 0.9 5 2.3 7.5 3.2 2.4 0.9 5.1 2.2 5.9 2.9 0.8 0.8 2.7 2 4.2 2.7 8.6 4.4 24.2 18.7 30.2 28 1.9 2.8 3.6 5.3 4 5.5 1.2 0.7 9.1 17.7 11.1 23.7 4.7 14.1 4.4 11.3 5 56.4 0.5 38.7 0.5 42.1-0.7 43.8-1.2 1.7-2.2 2-9.4 2.8-4.4 0.5-8.4 1.1-8.8 1.4-0.4 0.2-5.3 1.6-10.9 3.1-5.5 1.5-11.2 3.4-12.4 4.1-1.3 0.8-4.7 2.2-7.5 3.1-2.8 0.9-5.9 2.3-6.9 3.1-1 0.8-4.2 2.3-7 3.4-2.9 1.1-6.4 2.6-7.7 3.5-1.4 0.8-4.5 2.2-6.9 3-2.4 0.9-5.9 2.4-7.8 3.4-1.8 1.1-5.8 2.7-8.8 3.5-3 0.9-7.4 2.5-9.8 3.5-2.4 1-7.4 2.5-11.1 3.4-3.7 0.8-8.7 2.2-11.1 3-2.4 0.9-7.6 2-11.4 2.6-3.9 0.6-12.5 2-19.2 3.1-6.7 1-17.2 2.2-23.3 2.7-12.8 0.8-40.4 0.8-56.4-0.1z"/>
	</g>
</svg>